<?xml version="1.0" standalone="no"?>
<!DOCTYPE svg PUBLIC "-//W3C//DTD SVG 20010904//EN"
 "http://www.w3.org/TR/2001/REC-SVG-20010904/DTD/svg10.dtd">
<svg version="1.0" xmlns="http://www.w3.org/2000/svg"
 width="1600.000000pt" height="1600.000000pt" viewBox="0 0 1600.000000 1600.000000"
 preserveAspectRatio="xMidYMid meet">
<metadata>
Created by potrace 1.15, written by Peter Selinger 2001-2017
</metadata>
<g transform="translate(0.000000,1600.000000) scale(0.100000,-0.100000)"
fill="#000000" stroke="none">
<path d="M6535 13750 l-250 -250 -1642 0 -1643 0 0 -500 0 -500 250 0 250 0 0
-4571 c0 -3221 3 -4591 11 -4642 100 -666 610 -1176 1276 -1276 101 -15 6325
-15 6426 0 324 48 601 185 835 413 240 233 391 528 441 863 8 51 11 1421 11
4642 l0 4571 250 0 250 0 0 500 0 500 -1643 0 -1642 0 -250 250 -250 250
-1215 0 -1215 0 -250 -250z m2500 -1000 l250 -250 1108 0 1107 0 -2 -4537 -3
-4538 -22 -65 c-56 -165 -175 -282 -338 -333 l-70 -22 -3065 0 -3065 0 -70 22
c-163 51 -282 168 -338 333 l-22 65 -3 4538 -2 4537 1107 0 1108 0 250 250
250 250 785 0 785 0 250 -250z"/>
<path d="M5500 7750 l0 -2750 500 0 500 0 0 2750 0 2750 -500 0 -500 0 0
-2750z"/>
<path d="M7500 7750 l0 -2750 500 0 500 0 0 2750 0 2750 -500 0 -500 0 0
-2750z"/>
<path d="M9500 7750 l0 -2750 500 0 500 0 0 2750 0 2750 -500 0 -500 0 0
-2750z"/>
</g>
</svg>
