<?xml version="1.0" standalone="no"?>
<!DOCTYPE svg PUBLIC "-//W3C//DTD SVG 20010904//EN"
 "http://www.w3.org/TR/2001/REC-SVG-20010904/DTD/svg10.dtd">
<svg version="1.0" xmlns="http://www.w3.org/2000/svg"
 width="540.000000pt" height="540.000000pt" viewBox="0 0 540.000000 540.000000"
 preserveAspectRatio="xMidYMid meet">
<metadata>
Created by potrace 1.15, written by Peter Selinger 2001-2017
</metadata>
<g transform="translate(0.000000,540.000000) scale(0.100000,-0.100000)"
fill="#000000" stroke="none">
<path d="M455 5381 c-223 -65 -383 -228 -439 -447 -14 -56 -16 -282 -16 -2190
0 -2339 -4 -2187 61 -2317 79 -158 201 -262 379 -323 53 -18 124 -19 2215 -19
l2160 0 70 22 c191 61 348 218 408 408 l22 70 0 1860 0 1860 -36 75 c-58 120
-165 248 -443 526 -329 329 -453 430 -582 475 -52 18 -121 19 -1896 18 -1722
0 -1847 -2 -1903 -18z m3543 -224 c23 -15 52 -46 64 -70 l23 -42 0 -770 0
-770 -23 -42 c-12 -24 -41 -55 -64 -70 l-42 -28 -1388 -3 c-1352 -2 -1389 -2
-1426 17 -45 23 -87 66 -101 104 -8 19 -11 277 -11 793 0 831 -2 801 56 856
67 62 -46 58 1480 55 l1390 -2 42 -28z m607 -2452 c32 -20 56 -45 72 -74 l23
-45 -2 -1082 -3 -1082 -30 -43 c-16 -23 -50 -53 -74 -66 l-44 -23 -1884 0
c-1678 0 -1888 2 -1921 15 -47 20 -79 50 -103 97 -18 36 -19 75 -19 1109 0
1070 0 1073 21 1116 24 49 68 87 119 101 23 7 687 10 1916 9 l1881 -2 48 -30z"/>
<path d="M3070 4275 l0 -715 305 0 305 0 0 715 0 715 -305 0 -305 0 0 -715z"/>
</g>
</svg>
